<svg width="133" height="56" viewBox="0 0 133 56" fill="none" xmlns="http://www.w3.org/2000/svg">
<path d="M38.6263 42.8711C36.3487 45.9525 33.4014 49.1678 29.5162 51.5793C25.7649 53.9908 21.4778 55.8664 16.3869 55.8664C11.6979 55.8664 7.81266 53.4549 5.6691 51.4453C2.45377 48.364 0.712126 43.9429 0.176237 39.7898C-1.29746 26.9284 6.6069 10.0479 18.7984 2.54547C21.6118 0.803834 24.6932 0 27.6405 0C33.5353 0 37.9564 4.15314 38.4923 9.24409C39.0282 13.7991 37.2865 17.6843 32.1956 20.2298C29.6501 21.5695 28.3104 21.4356 27.9085 20.8997C27.6405 20.4978 27.7745 19.8279 28.3104 19.426C32.9994 15.5408 33.1334 12.3254 32.5975 7.77039C32.1956 4.823 30.32 2.94739 28.1764 2.94739C18.9324 2.94739 5.53513 23.7131 7.41074 38.718C8.0806 44.6128 11.6979 51.4453 19.2003 51.4453C21.6118 51.4453 24.2912 50.7755 26.5688 49.5697C31.7937 46.8903 34.0712 45.0147 37.1526 40.7276C37.5545 40.1917 37.9564 39.5218 38.3583 38.9859C38.6263 38.45 39.1622 38.3161 39.5641 38.3161C39.966 38.3161 40.5019 38.718 40.5019 39.3878C40.5019 39.7898 40.3679 40.5936 39.832 41.2635C39.5641 41.5314 39.0282 42.3352 38.6263 42.8711Z" fill="#24BECA"/>
<path d="M52.6975 50.5075C50.42 50.5075 49.0803 49.3018 48.5444 47.4262C47.0707 49.4357 44.9271 50.5075 42.7836 50.5075C39.1663 50.5075 35.817 47.4262 35.2811 43.407C34.4773 36.3065 40.506 27.1963 49.6162 27.1963C53.5014 27.1963 56.7167 28.804 57.1186 31.8854C57.6545 35.7706 54.3052 36.5744 53.0994 36.5744C52.0277 36.5744 50.286 36.3065 50.152 35.2347C50.0181 34.1629 52.4296 34.8328 52.1616 32.2873C52.0277 30.6796 50.42 30.1437 48.8123 30.1437C43.1855 30.1437 40.1041 37.9141 40.774 42.7371C41.0419 44.8807 42.1137 47.0242 44.1233 47.0242C45.731 47.0242 48.1425 44.7467 48.9463 41.2634C49.4822 38.9859 51.7597 37.3782 53.3674 37.3782C54.1712 37.3782 54.8411 37.7802 54.975 38.584C54.975 38.8519 54.975 39.2539 54.8411 39.7897C54.7071 40.8615 53.9033 44.0769 53.9033 44.8807C53.9033 45.5505 54.3052 46.3544 55.377 46.3544C56.5827 46.3544 62.0756 43.139 65.1569 38.8519C65.4249 38.45 65.9608 38.1821 66.3627 38.1821C66.7646 38.1821 67.3005 38.45 67.3005 38.9859C67.4345 39.5218 67.1665 40.1917 66.4967 41.1295C63.0134 46.2204 55.377 50.5075 52.6975 50.5075Z" fill="#24BECA"/>
<path d="M129.461 47.828C129.729 50.1055 130.801 51.5792 131.739 52.3831C132.141 52.651 132.275 53.0529 132.275 53.3209C132.409 53.9907 131.873 54.5266 131.069 54.5266C130.801 54.5266 130.533 54.5266 130.265 54.3927C126.246 52.785 124.638 50.1055 124.102 47.5601C122.629 49.4357 120.485 50.6414 118.475 50.6414C114.858 50.6414 111.509 47.5601 110.973 43.5409C110.169 36.5743 116.466 27.4642 125.442 27.4642C129.193 27.4642 132.543 28.9379 132.944 32.0193C133.48 35.9045 129.997 36.7083 128.925 36.7083C127.72 36.7083 125.978 36.4404 125.844 35.3686C125.71 34.4308 128.255 34.9667 127.987 32.5552C127.853 30.9475 126.112 30.4116 124.638 30.4116C119.413 30.4116 115.93 37.2442 116.6 42.871C116.868 45.1486 117.94 47.2921 119.949 47.2921C121.557 47.2921 123.968 45.0146 124.906 41.5313C125.442 39.2538 127.72 37.6461 129.327 37.6461C130.131 37.6461 130.801 38.048 130.935 38.9858C130.935 39.3878 130.801 40.4595 129.997 44.0768C129.327 45.4165 129.327 46.7562 129.461 47.828Z" fill="#24BECA"/>
<path d="M81.2292 46.4883C82.435 46.4883 86.4541 45.0146 89.6695 40.5935C90.0714 40.1916 90.4733 39.9236 90.8752 39.9236C91.4111 39.9236 91.813 40.1916 91.947 40.7275C91.947 41.1294 91.679 41.9332 91.0092 42.871C87.3919 47.962 81.2292 50.5075 78.5498 50.5075C75.7363 50.5075 74.2626 48.7658 73.9947 46.2203C73.8607 45.4165 73.8607 44.3447 74.1287 43.273C75.0665 37.5121 77.21 34.0289 77.0761 32.9571C77.0761 32.6891 76.8081 32.5552 76.6741 32.5552C74.9325 32.5552 68.6358 38.9858 67.698 43.273L66.8942 46.6223C66.3583 49.0338 64.0808 50.5075 62.4731 50.5075C61.6693 50.5075 61.1334 50.1055 60.9994 49.3017C60.9994 49.0338 60.9994 48.6318 61.1334 48.096C61.1334 48.096 64.2147 32.2872 64.3487 31.4834C64.7506 29.6078 65.4205 27.7322 69.1717 27.7322C69.9755 27.7322 70.5114 28.1341 70.6454 29.0719C70.6454 29.3398 70.6454 29.7418 70.5114 30.2776L69.4397 35.1006C72.789 30.6796 77.8799 27.4642 81.0952 27.4642C82.435 27.4642 83.3728 28.1341 83.6407 29.6078C83.7747 30.4116 83.5067 31.7513 82.9709 33.225C81.8991 36.3064 80.6933 40.7275 79.7555 44.6127C79.4876 45.1486 79.7555 46.4883 81.2292 46.4883Z" fill="#24BECA"/>
<path d="M102.392 28.0003C102.392 30.1439 103.464 32.4214 104.804 33.8951C105.34 32.4214 105.608 30.9477 105.608 29.474C105.608 26.6606 104.536 25.4549 103.732 25.4549C102.794 25.4549 102.392 26.7946 102.392 28.0003ZM107.215 39.522C106.813 39.522 106.411 39.522 105.876 39.388C102.392 44.4789 98.7751 47.9622 95.9616 49.4359C94.7559 50.1058 93.6841 50.3737 92.8803 50.3737C92.2104 50.3737 91.5406 50.2397 91.2726 49.7039C90.0669 47.5603 89.531 43.4072 89.531 38.9861C89.531 35.7707 89.7989 33.0913 90.3348 31.2157C91.0047 29.2061 93.5502 27.3305 95.1578 27.3305C95.9617 27.3305 96.6315 27.7324 96.6315 28.6702C96.6315 28.9382 96.4975 29.3401 96.3636 29.742C95.1578 33.0913 94.6219 36.3066 94.6219 39.522C94.6219 41.2636 95.0238 44.211 95.4258 45.6847C95.5597 45.9526 95.5597 46.3545 95.8277 46.3545C96.3636 46.3545 99.9808 42.7373 102.66 38.4502C100.383 36.9765 99.043 34.297 99.043 30.9477C99.043 25.3209 102.392 22.5075 105.608 22.5075C108.153 22.5075 110.431 24.3831 110.431 28.1343C110.431 30.4118 109.493 33.0913 108.153 35.6368C108.153 35.6368 108.689 35.7707 108.957 35.7707C110.967 35.7707 112.574 34.8329 113.378 33.8951C114.048 33.2253 114.584 32.6894 115.12 32.6894C115.522 32.6894 115.656 32.9573 115.656 33.3592C115.656 33.6272 115.522 34.0291 115.388 34.431C113.512 37.5124 110.029 39.522 107.215 39.522Z" fill="#24BECA"/>
</svg>
