<svg width="12" height="12" viewBox="0 0 12 12" fill="none" xmlns="http://www.w3.org/2000/svg">
<g clip-path="url(#clip0_305_9178)">
<path d="M5.52448 1.46332C5.67417 1.00269 6.32583 1.00269 6.47552 1.46332L7.23494 3.80027C7.30188 4.00627 7.49385 4.14574 7.71045 4.14575L10.1677 4.14584C10.652 4.14586 10.8534 4.76563 10.4616 5.05034L8.47368 6.49475C8.29845 6.62207 8.22513 6.84773 8.29206 7.05374L9.0513 9.39075C9.20095 9.85139 8.67374 10.2344 8.28189 9.94976L6.29388 8.5055C6.11864 8.37819 5.88136 8.37819 5.70612 8.5055L3.71811 9.94976C3.32626 10.2344 2.79905 9.85139 2.9487 9.39075L3.70794 7.05374C3.77487 6.84774 3.70155 6.62207 3.52632 6.49475L1.53842 5.05034C1.14658 4.76563 1.34796 4.14586 1.8323 4.14584L4.28955 4.14575C4.50615 4.14574 4.69812 4.00627 4.76506 3.80027L5.52448 1.46332Z" fill="#FFEB11"/>
</g>
<defs>
<clipPath id="clip0_305_9178">
<rect width="12" height="12" fill="white"/>
</clipPath>
</defs>
</svg>
